<svg id="add-friend_1" data-name="add-friend 1" xmlns="http://www.w3.org/2000/svg" width="24" height="24" viewBox="0 0 24 24">
  <path id="add-friend_1_Background_Mask_" data-name="add-friend 1 (Background/Mask)" d="M0,0H24V24H0Z" fill="none"/>
  <path id="Vector" d="M5.83,0A5.837,5.837,0,0,0,0,5.83V7.61a.5.5,0,0,0,.5.5h16a.5.5,0,0,0,.5-.5V5.83A5.836,5.836,0,0,0,11.17,0H5.83Z" transform="translate(1.987 13.328)"/>
  <path id="Vector-2" data-name="Vector" d="M4.5,9A4.5,4.5,0,1,1,9,4.5,4.5,4.5,0,0,1,4.5,9Z" transform="translate(5.987 2.438)"/>
  <path id="Vector-3" data-name="Vector" d="M4.5,2.5V1a1,1,0,1,0-2,0V2.5H1a1,1,0,0,0,0,2H2.5V6a1,1,0,1,0,2,0V4.5H6a1,1,0,1,0,0-2Z" transform="translate(15 7.5)"/>
</svg>
