<svg id="comment_1" data-name="comment 1" xmlns="http://www.w3.org/2000/svg" width="28" height="28" viewBox="0 0 28 28">
  <path id="comment_1_Background_Mask_" data-name="comment 1 (Background/Mask)" d="M0,0H28V28H0Z" fill="none"/>
  <path id="Vector" d="M19.7,7.16A10.063,10.063,0,1,0,1.223,14.87L.037,19.031a.875.875,0,0,0,.842,1.115.9.9,0,0,0,.24-.033l4.162-1.187a9.62,9.62,0,0,0,1.859.778,9.887,9.887,0,0,0,2.927.442A10.07,10.07,0,0,0,19.7,7.16Z" transform="translate(0.871 0.854)"/>
  <path id="Vector-2" data-name="Vector" d="M17.29,13.247A10.046,10.046,0,0,0,13.895,0,11.787,11.787,0,0,1,2.321,14.148,11.665,11.665,0,0,1,0,13.907a10.133,10.133,0,0,0,8.446,4.616A10,10,0,0,0,13.233,17.3l4.162,1.186a.9.9,0,0,0,.24.033.875.875,0,0,0,.842-1.115h0Z" transform="translate(8.616 8.602)"/>
</svg>
