<svg id="contact_1" data-name="contact 1" xmlns="http://www.w3.org/2000/svg" width="28" height="28" viewBox="0 0 28 28">
  <path id="contact_1_Background_Mask_" data-name="contact 1 (Background/Mask)" d="M0,0H28V28H0Z" fill="none"/>
  <path id="Vector" d="M17.5,23.333H3.5a3.509,3.509,0,0,1-3.5-3.5V3.5a.106.106,0,0,1,.006-.03.115.115,0,0,0,.006-.028A3.486,3.486,0,0,1,3.5,0h11.67a3.5,3.5,0,0,1,3.5,3.5V4.882A3.5,3.5,0,0,1,21,8.167V19.833a3.509,3.509,0,0,1-3.5,3.5Zm-7-15.167A3.477,3.477,0,0,0,8.025,9.192,3.521,3.521,0,0,0,7,11.667a3.481,3.481,0,0,0,.723,2.1,5.249,5.249,0,0,0-1.89,4.9A1.171,1.171,0,0,0,7,19.833h7a1.171,1.171,0,0,0,1.166-1.166,5.249,5.249,0,0,0-1.89-4.9,3.482,3.482,0,0,0,.724-2.1,3.524,3.524,0,0,0-1.025-2.475A3.48,3.48,0,0,0,10.5,8.167Zm-7-5.833a1.17,1.17,0,0,0-.734,2.061,1.144,1.144,0,0,0,.41.225,1.165,1.165,0,0,0,.466.047H16.333V3.5a1.168,1.168,0,0,0-1.166-1.166Z" transform="translate(3.5 2.333)"/>
</svg>
