<svg id="inbox_1_1" data-name="inbox (1) 1" xmlns="http://www.w3.org/2000/svg" width="24" height="24" viewBox="0 0 24 24">
  <path id="inbox_1_1_Background_Mask_" data-name="inbox (1) 1 (Background/Mask)" d="M0,0H24V24H0Z" fill="none"/>
  <path id="Vector" d="M15,20H5a5.006,5.006,0,0,1-5-5V11a1.006,1.006,0,0,1,.293-.707A.994.994,0,0,1,1,10H2V1A.994.994,0,0,1,2.293.292,1.006,1.006,0,0,1,3,0H17a1,1,0,0,1,1,1v9h1a.994.994,0,0,1,.707.293A1.006,1.006,0,0,1,20,11v4a5.006,5.006,0,0,1-5,5ZM4,2v8H6a1,1,0,0,1,.949.684L7.721,13H12.28l.771-2.316A1,1,0,0,1,14,10h2V2Z" transform="translate(2 2)"/>
  <path id="Vector-2" data-name="Vector" d="M7,2A1,1,0,0,0,7,0H1A1,1,0,0,0,1,2H7Z" transform="translate(8 6)"/>
  <path id="Vector-3" data-name="Vector" d="M4,2A1,1,0,0,0,4,0H1A1,1,0,0,0,1,2H4Z" transform="translate(8 9)"/>
</svg>
