<svg id="ic_option" xmlns="http://www.w3.org/2000/svg" width="24" height="24" viewBox="0 0 24 24">
  <path id="ic_option_Background_Mask_" data-name="ic_option (Background/Mask)" d="M0,0H24V24H0Z" transform="translate(24 0) rotate(90)" fill="none"/>
  <path id="Vector" d="M2,4A2,2,0,1,1,4,2,2,2,0,0,1,2,4Z" transform="translate(14 10) rotate(90)"/>
  <path id="Vector-2" data-name="Vector" d="M2,4A2,2,0,1,1,4,2,2,2,0,0,1,2,4Z" transform="translate(14 2) rotate(90)"/>
  <path id="Vector-3" data-name="Vector" d="M2,4A2,2,0,1,1,4,2,2,2,0,0,1,2,4Z" transform="translate(14 18) rotate(90)"/>
</svg>
