<svg id="send_1" data-name="send 1" xmlns="http://www.w3.org/2000/svg" width="24" height="24" viewBox="0 0 24 24">
  <path id="send_1_Background_Mask_" data-name="send 1 (Background/Mask)" d="M0,0H24V24H0Z" fill="none"/>
  <path id="Vector" d="M8,20a1,1,0,0,1-.8-.4A1,1,0,0,1,7,19V11.58L.5,7.87A1,1,0,0,1,0,6.9a1.012,1.012,0,0,1,.213-.526A1,1,0,0,1,.681,6.05l18-6A1.011,1.011,0,0,1,19,0a1,1,0,0,1,.153.012A1.008,1.008,0,0,1,20,1V17a1.008,1.008,0,0,1-1,1h-.01a1.016,1.016,0,0,1-.49-.128L12.312,14.33l-3.48,5.22A.995.995,0,0,1,8,20ZM12.672,8.89,9,11.51V15.7l2.11-3.16Z" transform="translate(1.999 2)"/>
</svg>
