<svg id="arrows_1" data-name="arrows 1" xmlns="http://www.w3.org/2000/svg" width="24" height="24" viewBox="0 0 24 24">
  <path id="arrows_1_Background_Mask_" data-name="arrows 1 (Background/Mask)" d="M0,0H24V24H0Z" fill="none"/>
  <g id="Layer_20" data-name="Layer 20" transform="translate(0.775 6)">
    <path id="Vector" d="M22.255.22a.75.75,0,0,0-.53-.22H15.538a.75.75,0,1,0,0,1.5H19.9L13.678,7.65,8,3.607a.75.75,0,0,0-.971.086L.189,10.725a.75.75,0,0,0,1.072,1.046l6.4-6.57,5.663,4.035a.75.75,0,0,0,.964-.079l6.69-6.611V6.937a.75.75,0,1,0,1.5,0V.75A.75.75,0,0,0,22.255.22Z"/>
  </g>
</svg>
