<svg id="cloud-upload_1" data-name="cloud-upload 1" xmlns="http://www.w3.org/2000/svg" width="24" height="24" viewBox="0 0 24 24">
  <path id="cloud-upload_1_Background_Mask_" data-name="cloud-upload 1 (Background/Mask)" d="M0,0H24V24H0Z" fill="none"/>
  <path id="XMLID_270" data-name="XMLID 270" d="M15.75,16.5H6A6,6,0,0,1,4.029,4.838a6.749,6.749,0,0,1,13.2,1.378A5.227,5.227,0,0,1,21,11.25,5.256,5.256,0,0,1,15.75,16.5ZM10.5,4.5a.745.745,0,0,0-.53.22l-3,3A.749.749,0,0,0,7.5,9H9v3a1.5,1.5,0,1,0,3,0V9h1.5a.749.749,0,0,0,.53-1.28l-3-3A.748.748,0,0,0,10.5,4.5Z" transform="translate(1.5 3)"/>
</svg>
