<svg id="dashboard_1" data-name="dashboard 1" xmlns="http://www.w3.org/2000/svg" width="28" height="28" viewBox="0 0 28 28">
  <path id="dashboard_1_Background_Mask_" data-name="dashboard 1 (Background/Mask)" d="M0,0H28V28H0Z" fill="none"/>
  <path id="Vector" d="M12.8,19.833c-1.523,0-2.2,0-4.717-.014L3.808,19.8a1.167,1.167,0,0,1-.868-.392,11.667,11.667,0,1,1,17.426.031,1.164,1.164,0,0,1-.868.389l-4.443,0ZM11.65,8.167c-.1,0-.193,0-.288.012a3.515,3.515,0,1,0,3.805,3.488,3.48,3.48,0,0,0-.184-1.066l2.039-1.493a1.167,1.167,0,0,0-.517-2.082,1.18,1.18,0,0,0-.187-.015,1.165,1.165,0,0,0-.675.214L13.576,8.74A3.5,3.5,0,0,0,11.65,8.167Z" transform="translate(2.333 2.333)"/>
  <path id="Vector-2" data-name="Vector" d="M1.167,2.333A1.167,1.167,0,1,1,2.333,1.167,1.167,1.167,0,0,1,1.167,2.333Z" transform="translate(12.833 12.833)"/>
</svg>
