<svg id="download_1_1" data-name="download (1) 1" xmlns="http://www.w3.org/2000/svg" width="24" height="24" viewBox="0 0 24 24">
  <path id="download_1_1_Background_Mask_" data-name="download (1) 1 (Background/Mask)" d="M0,0H24V24H0Z" fill="none"/>
  <path id="Vector" d="M1.5,5.04A1.5,1.5,0,0,1,0,3.54V1.5A1.5,1.5,0,0,1,1.5,0H2.52a.84.84,0,0,1,.84.84.84.84,0,0,0,.84.84H15.96A.84.84,0,0,0,16.8.84.84.84,0,0,1,17.64,0h1.02a1.5,1.5,0,0,1,1.5,1.5V3.54a1.5,1.5,0,0,1-1.5,1.5H1.5Z" transform="translate(2.073 16.712)"/>
  <path id="Vector-2" data-name="Vector" d="M.2,8.55A1.98,1.98,0,0,1,0,7.692v0a1.817,1.817,0,0,1,2.837-1.5L5.029,7.673,4.375,2.778a2.354,2.354,0,0,1,.067-1.2,2.377,2.377,0,0,1,4.475,0,2.353,2.353,0,0,1,.067,1.2L8.345,7.662l2.177-1.477a1.817,1.817,0,0,1,2.836,1.5v0a1.98,1.98,0,0,1-.743,1.546L7.3,13.493a.99.99,0,0,1-1.237,0L.743,9.238A1.98,1.98,0,0,1,.2,8.55Z" transform="translate(5.474 2.147)"/>
</svg>
