<svg id="email_1" data-name="email 1" xmlns="http://www.w3.org/2000/svg" width="28" height="28" viewBox="0 0 28 28">
  <path id="email_1_Background_Mask_" data-name="email 1 (Background/Mask)" d="M0,0H28V28H0Z" fill="none"/>
  <path id="Vector" d="M22.766,4.129A5.822,5.822,0,0,0,17.216,0H5.55A5.822,5.822,0,0,0,0,4.129l11.383,6.209Z" transform="translate(2.617 3.5)"/>
  <path id="Vector-2" data-name="Vector" d="M11.667,6.2a1.168,1.168,0,0,1-.559-.142L0,0V8.535a5.84,5.84,0,0,0,5.833,5.833H17.5a5.84,5.84,0,0,0,5.833-5.833V0L12.226,6.059A1.168,1.168,0,0,1,11.667,6.2Z" transform="translate(2.333 10.132)"/>
</svg>
