<svg id="thumbnail_1_1" data-name="thumbnail (1) 1" xmlns="http://www.w3.org/2000/svg" width="24" height="24" viewBox="0 0 24 24">
  <path id="thumbnail_1_1_Background_Mask_" data-name="thumbnail (1) 1 (Background/Mask)" d="M0,0H24V24H0Z" fill="none"/>
  <g id="Layer_56" data-name="Layer 56" transform="translate(2 2)">
    <path id="Vector" d="M6,0A3,3,0,0,1,9,3V6A3,3,0,0,1,6,9H3A3,3,0,0,1,0,6V3A3,3,0,0,1,3,0Z"/>
    <path id="Vector-2" data-name="Vector" d="M6,0A3,3,0,0,1,9,3V6A3,3,0,0,1,6,9H3A3,3,0,0,1,0,6V3A3,3,0,0,1,3,0Z" transform="translate(11)"/>
    <path id="Vector-3" data-name="Vector" d="M6,0A3,3,0,0,1,9,3V6A3,3,0,0,1,6,9H3A3,3,0,0,1,0,6V3A3,3,0,0,1,3,0Z" transform="translate(0 11)"/>
    <path id="Vector-4" data-name="Vector" d="M6,0A3,3,0,0,1,9,3V6A3,3,0,0,1,6,9H3A3,3,0,0,1,0,6V3A3,3,0,0,1,3,0Z" transform="translate(11 11)"/>
  </g>
</svg>
