<svg id="thumbnail_1" data-name="thumbnail 1" xmlns="http://www.w3.org/2000/svg" width="28" height="28" viewBox="0 0 28 28">
  <path id="thumbnail_1_Background_Mask_" data-name="thumbnail 1 (Background/Mask)" d="M0,0H28V28H0Z" fill="none"/>
  <path id="Tracé_16" data-name="Tracé 16" d="M42.727,53.75a9.619,9.619,0,0,0,3.712-.721,9.46,9.46,0,0,0,3.712.721c3.866,0,6.894-2.063,6.894-4.7V44.659c0-2.635-3.028-4.7-6.894-4.7-.179,0-.355.008-.53.018V35.012c0-2.58-3.028-4.6-6.894-4.6s-6.894,2.015-6.894,4.6V49.154C35.833,51.734,38.861,53.75,42.727,53.75Zm12.2-4.7c0,1.219-1.96,2.576-4.773,2.576s-4.773-1.358-4.773-2.576v-.981a9.51,9.51,0,0,0,9.545,0Zm-4.773-6.969c2.813,0,4.773,1.358,4.773,2.576s-1.96,2.575-4.773,2.575-4.773-1.358-4.773-2.575S47.339,42.083,50.151,42.083Zm-7.424-9.545c2.813,0,4.773,1.3,4.773,2.474s-1.96,2.475-4.773,2.475-4.773-1.3-4.773-2.475S39.914,32.538,42.727,32.538Zm-4.773,5.814a9.69,9.69,0,0,0,9.545,0v1.96a6.863,6.863,0,0,0-3.076,1.7,8.159,8.159,0,0,1-1.7.185c-2.813,0-4.773-1.3-4.773-2.474Zm0,4.714a8.989,8.989,0,0,0,4.773,1.256c.189,0,.371-.023.557-.033a3.289,3.289,0,0,0-.027.37v2.211c-.178.011-.35.045-.53.045-2.813,0-4.773-1.3-4.773-2.475Zm0,4.713a8.979,8.979,0,0,0,4.773,1.257c.178,0,.353-.014.53-.022v.038a3.676,3.676,0,0,0,.975,2.432,8.315,8.315,0,0,1-1.505.144c-2.813,0-4.773-1.3-4.773-2.474Z" transform="translate(-32.439 -28.083)"/>
</svg>
