<svg id="checkbox_1_1" data-name="checkbox (1) 1" xmlns="http://www.w3.org/2000/svg" width="28" height="28" viewBox="0 0 28 28">
  <path id="checkbox_1_1_Background_Mask_" data-name="checkbox (1) 1 (Background/Mask)" d="M0,0H28V28H0Z" fill="none"/>
  <path id="Vector" d="M15.167,8.167a7.008,7.008,0,0,1-7,7h-7a1.167,1.167,0,1,0,0,2.333h7A9.344,9.344,0,0,0,17.5,8.167v-7a1.167,1.167,0,1,0-2.333,0Z" transform="translate(8.167 8.167)"/>
  <path id="Vector-2" data-name="Vector" d="M14,19.833H5.833A5.841,5.841,0,0,1,0,14V5.833A5.841,5.841,0,0,1,5.833,0H14a5.841,5.841,0,0,1,5.833,5.833V14A5.841,5.841,0,0,1,14,19.833ZM5.851,8.19a1.167,1.167,0,0,0-.963,1.827l2.263,3.128a1.17,1.17,0,0,0,.83.478c.038,0,.076.006.114.006a1.168,1.168,0,0,0,.793-.31l5.9-5.462a1.176,1.176,0,0,0,.374-.811,1.167,1.167,0,0,0-1.121-1.212H14a1.162,1.162,0,0,0-.793.31L8.27,10.712,6.778,8.65A1.163,1.163,0,0,0,6.021,8.2,1.177,1.177,0,0,0,5.851,8.19Z" transform="translate(2.333 2.333)"/>
</svg>
