<svg id="arrows_1" data-name="arrows 1" xmlns="http://www.w3.org/2000/svg" width="24" height="24" viewBox="0 0 24 24">
  <path id="arrows_1_Background_Mask_" data-name="arrows 1 (Background/Mask)" d="M0,0H24V24H0Z" transform="translate(24 24) rotate(180)" fill="none"/>
  <g id="Layer_20" data-name="Layer 20" transform="translate(0.75 6.027)">
    <path id="Vector" d="M22.255,11.753a.75.75,0,0,1-.53.22H15.538a.75.75,0,0,1,0-1.5H19.9l-6.221-6.15L8,8.365a.75.75,0,0,1-.971-.086L.189,1.248A.75.75,0,0,1,1.261.2l6.4,6.57,5.663-4.035a.75.75,0,0,1,.964.079l6.69,6.611V5.035a.75.75,0,1,1,1.5,0v6.188A.75.75,0,0,1,22.255,11.753Z" transform="translate(0 0)"/>
  </g>
</svg>
