<svg id="office_1" data-name="office 1" xmlns="http://www.w3.org/2000/svg" width="28" height="28" viewBox="0 0 28 28">
  <path id="office_1_Background_Mask_" data-name="office 1 (Background/Mask)" d="M0,0H28V28H0Z" fill="none"/>
  <path id="Vector" d="M10.442.793A1.182,1.182,0,0,0,9.333,0H3.5A3.51,3.51,0,0,0,0,3.5V5.833H7.688l3.325-3.325Z" transform="translate(2.333 3.5)"/>
  <path id="Vector-2" data-name="Vector" d="M13.323,0,8.995,4.328a1.2,1.2,0,0,1-.828.338H0V14a3.51,3.51,0,0,0,3.5,3.5H19.833a3.51,3.51,0,0,0,3.5-3.5V3.5a3.51,3.51,0,0,0-3.5-3.5h-6.51Z" transform="translate(2.333 7)"/>
</svg>
