<svg id="email_4_1" data-name="email (4) 1" xmlns="http://www.w3.org/2000/svg" width="24" height="24" viewBox="0 0 24 24">
  <path id="email_4_1_Background_Mask_" data-name="email (4) 1 (Background/Mask)" d="M0,0H24V24H0Z" fill="none"/>
  <path id="Vector" d="M15,20H5a5,5,0,0,1-5-5V7A5.221,5.221,0,0,1,.22,5.52,5.013,5.013,0,0,1,1.27,3.666,4.947,4.947,0,0,1,3,2.42V1A1,1,0,0,1,4,0H16a1,1,0,0,1,1,1V2.42a4.98,4.98,0,0,1,2.78,3.1A5.221,5.221,0,0,1,20,7v8a5,5,0,0,1-5,5ZM5,2V8.134l5,2.726,5-2.727V2ZM17,4.78V7.043l.96-.524a.063.063,0,0,0-.011-.04A2.865,2.865,0,0,0,17,4.78Zm-14,0a2.866,2.866,0,0,0-.95,1.7.057.057,0,0,0-.01.04L3,7.043Z" transform="translate(2 2)"/>
  <path id="Vector-2" data-name="Vector" d="M7,2A1,1,0,0,0,7,0H1A1,1,0,0,0,1,2H7Z" transform="translate(8 5)"/>
  <path id="Vector-3" data-name="Vector" d="M5,2A1,1,0,1,0,5,0H1A1,1,0,1,0,1,2H5Z" transform="translate(8 8)"/>
</svg>
