<svg xmlns="http://www.w3.org/2000/svg" width="25" height="25" viewBox="0 0 25 25">
  <g id="close_1" data-name="close 1" transform="translate(0.5 0.5)">
    <path id="close_1_Background_Mask_" data-name="close 1 (Background/Mask)" d="M0,0H24V24H0Z" fill="none"/>
    <path id="Soustraction_1" data-name="Soustraction 1" d="M-3724.5,3723.5a11.922,11.922,0,0,1-8.485-3.514,11.921,11.921,0,0,1-3.515-8.485,11.922,11.922,0,0,1,3.515-8.486,11.922,11.922,0,0,1,8.485-3.515,11.922,11.922,0,0,1,8.486,3.515,11.922,11.922,0,0,1,3.515,8.486,11.922,11.922,0,0,1-3.515,8.485A11.923,11.923,0,0,1-3724.5,3723.5Zm-3.7-18a.946.946,0,0,0-.674.277l-1.345,1.345a.954.954,0,0,0,0,1.347l3.029,3.03-3.029,3.031a.953.953,0,0,0,0,1.347l1.346,1.346a.947.947,0,0,0,.674.278.944.944,0,0,0,.673-.278l3.029-3.029,3.029,3.029a.949.949,0,0,0,.673.278.951.951,0,0,0,.675-.278l1.346-1.346a.946.946,0,0,0,.278-.673.946.946,0,0,0-.278-.673l-3.03-3.031,3.029-3.03a.954.954,0,0,0,0-1.347l-1.347-1.345a.946.946,0,0,0-.673-.277.946.946,0,0,0-.673.277l-3.029,3.03-3.029-3.03A.945.945,0,0,0-3728.2,3705.5Z" transform="translate(3736.5 -3699.5)"/>
  </g>
</svg>
