<svg id="icMap" xmlns="http://www.w3.org/2000/svg" width="24" height="24" viewBox="0 0 24 24">
  <path id="icMap_Background_Mask_" data-name="icMap (Background/Mask)" d="M0,0H24V24H0Z" fill="none"/>
  <path id="Vector" d="M10.435,24H9.565L1.987,14.678A8.758,8.758,0,0,1,0,9.183C0,4.119,4.484,0,9.995,0h.011C15.516,0,20,4.119,20,9.183a8.758,8.758,0,0,1-1.987,5.5L10.435,24ZM10,6.141A2.948,2.948,0,0,0,6.939,8.953,2.948,2.948,0,0,0,10,11.766a2.948,2.948,0,0,0,3.061-2.813A2.948,2.948,0,0,0,10,6.141Z" transform="translate(2)"/>
</svg>
