<svg id="call" xmlns="http://www.w3.org/2000/svg" width="24" height="24" viewBox="0 0 24 24">
  <g id="phone-call_1" data-name="phone-call 1">
    <path id="phone-call_1_Background_Mask_" data-name="phone-call 1 (Background/Mask)" d="M0,0H24V24H0Z" fill="none"/>
    <path id="Vector" d="M16.024,13.164c-.585.1-.919.5-1.591,1.3-.108.129-.368.438-.569.658a9.388,9.388,0,0,1-1.238-.5A10.275,10.275,0,0,1,7.885,9.878a9.344,9.344,0,0,1-.5-1.238c.22-.2.529-.462.661-.573.8-.667,1.195-1,1.3-1.589C9.554,5.263,6.337.768,6.3.728A1.717,1.717,0,0,0,5.025,0C3.721,0,0,4.828,0,5.641c0,.047.068,4.85,5.991,10.875C12.01,22.432,16.812,22.5,16.859,22.5c.814,0,5.641-3.722,5.641-5.025a1.712,1.712,0,0,0-.724-1.275h0C21.715,16.151,17.25,12.933,16.024,13.164Z" transform="translate(0.75 0.75)"/>
  </g>
</svg>
