<svg id="envelope_1" data-name="envelope 1" xmlns="http://www.w3.org/2000/svg" width="28" height="28" viewBox="0 0 28 28">
  <path id="envelope_1_Background_Mask_" data-name="envelope 1 (Background/Mask)" d="M0,0H28V28H0Z" fill="none"/>
  <path id="Vector" d="M1.167,2.333A1.167,1.167,0,1,1,2.333,1.167,1.167,1.167,0,0,1,1.167,2.333Z" transform="translate(12.833 12.833)" />
  <path id="Vector-2" data-name="Vector" d="M17.5,23.333H3.5a3.509,3.509,0,0,1-3.5-3.5V3.5A3.509,3.509,0,0,1,3.5,0h14A3.509,3.509,0,0,1,21,3.5V19.833a3.509,3.509,0,0,1-3.5,3.5Zm-14-21A1.168,1.168,0,0,0,2.334,3.5V4.667h7v3.71a3.495,3.495,0,0,0,1.163,6.79H10.5a3.495,3.495,0,0,0,1.163-6.79V4.667h7V3.5A1.169,1.169,0,0,0,17.5,2.334Z" transform="translate(3.5 2.333)"/>
</svg>
