<svg id="save_1" data-name="save 1" xmlns="http://www.w3.org/2000/svg" width="24" height="24" viewBox="0 0 24 24">
  <path id="save_1_Background_Mask_" data-name="save 1 (Background/Mask)" d="M0,0H24V24H0Z" fill="none"/>
  <g id="Group">
    <path id="Vector" d="M9.464,8.285H1.18A1.181,1.181,0,0,1,0,7.1V0H10.643V7.1A1.181,1.181,0,0,1,9.464,8.285ZM8.334,3.012a.7.7,0,0,0-.7.7v2.26a.7.7,0,0,0,1.407,0V3.715A.7.7,0,0,0,8.334,3.012Z" transform="translate(5.925)"/>
    <path id="Vector-2" data-name="Vector" d="M1.18,0A1.181,1.181,0,0,0,0,1.18V9.791H12.15V1.18A1.181,1.181,0,0,0,10.97,0Z" transform="translate(5.925 14.209)"/>
    <path id="Vector-3" data-name="Vector" d="M19.275.206a.7.7,0,0,0-.5-.206h-.8V7.1a2.589,2.589,0,0,1-2.586,2.586H7.1A2.589,2.589,0,0,1,4.519,7.1V0H2.586A2.589,2.589,0,0,0,0,2.586V21.414A2.589,2.589,0,0,0,2.586,24H4.519V15.389A2.589,2.589,0,0,1,7.1,12.8H16.9a2.589,2.589,0,0,1,2.586,2.586V24h1.933A2.589,2.589,0,0,0,24,21.414V5.222a.7.7,0,0,0-.206-.5h0Z"/>
  </g>
</svg>
