<svg id="thumbnail_1" data-name="thumbnail 1" xmlns="http://www.w3.org/2000/svg" width="28" height="28" viewBox="0 0 28 28">
  <path id="thumbnail_1_Background_Mask_" data-name="thumbnail 1 (Background/Mask)" d="M0,0H28V28H0Z" fill="none"/>
  <g id="Layer_56" data-name="Layer 56" transform="translate(2.333 2.333)">
    <path id="Vector" d="M7,0a3.5,3.5,0,0,1,3.5,3.5V7A3.5,3.5,0,0,1,7,10.5H3.5A3.5,3.5,0,0,1,0,7V3.5A3.5,3.5,0,0,1,3.5,0Z"/>
    <path id="Vector-2" data-name="Vector" d="M7,0a3.5,3.5,0,0,1,3.5,3.5V7A3.5,3.5,0,0,1,7,10.5H3.5A3.5,3.5,0,0,1,0,7V3.5A3.5,3.5,0,0,1,3.5,0Z" transform="translate(12.833)"/>
    <path id="Vector-3" data-name="Vector" d="M7,0a3.5,3.5,0,0,1,3.5,3.5V7A3.5,3.5,0,0,1,7,10.5H3.5A3.5,3.5,0,0,1,0,7V3.5A3.5,3.5,0,0,1,3.5,0Z" transform="translate(0 12.833)"/>
    <path id="Vector-4" data-name="Vector" d="M7,0a3.5,3.5,0,0,1,3.5,3.5V7A3.5,3.5,0,0,1,7,10.5H3.5A3.5,3.5,0,0,1,0,7V3.5A3.5,3.5,0,0,1,3.5,0Z" transform="translate(12.833 12.833)"/>
  </g>
</svg>
